<svg width="222" height="40" viewBox="0 0 222 40" fill="none" xmlns="http://www.w3.org/2000/svg">
<path fill-rule="evenodd" clip-rule="evenodd" d="M31.6237 12.6432H16.5381C12.8897 12.6432 10.6016 15.2269 10.6016 18.8844V28.7522C10.6016 32.4097 12.8771 34.9932 16.5381 34.9932H31.6219C35.2847 34.9932 37.562 32.4097 37.562 28.7522V18.8844C37.562 15.2269 35.2847 12.6432 31.6237 12.6432Z" stroke="white" stroke-width="2.5" stroke-linecap="round" stroke-linejoin="round"/>
<path d="M16.5146 20.0805H31.6399" stroke="white" stroke-width="2.5" stroke-linecap="round" stroke-linejoin="round"/>
<path d="M31.0366 12.6394L28.3936 8.23425C26.4999 5.11553 23.2244 4.06333 20.0806 5.95871L7.16597 13.7312C4.03462 15.6122 3.40403 19.0048 5.285 22.1488L10.3874 30.5915C10.6252 31.0005 10.8883 31.368 11.1892 31.6976V31.7103" stroke="white" stroke-width="2.5" stroke-linecap="round" stroke-linejoin="round"/>
<path d="M63.2088 31.9772C60.918 31.9772 58.9667 31.4788 57.3546 30.4819C55.7426 29.4744 54.5071 28.0745 53.648 26.2821C52.7996 24.4898 52.3754 22.4112 52.3754 20.0462C52.3754 17.6811 52.7996 15.6025 53.648 13.8102C54.5071 12.0179 55.7426 10.6232 57.3546 9.62633C58.9667 8.61882 60.918 8.11506 63.2088 8.11506C65.8496 8.11506 68.0343 8.7832 69.763 10.1195C71.5023 11.4558 72.7113 13.2534 73.39 15.5123L70.0175 16.4191C69.5721 14.8177 68.7767 13.5609 67.6313 12.6489C66.4965 11.7368 65.0223 11.2808 63.2088 11.2808C61.5862 11.2808 60.234 11.6467 59.1522 12.3784C58.0705 13.1102 57.2539 14.1336 56.7024 15.4487C56.1615 16.7638 55.8911 18.2963 55.8911 20.0462C55.8805 21.796 56.1456 23.3285 56.6865 24.6436C57.238 25.9587 58.0546 26.9821 59.1363 27.7139C60.2287 28.4456 61.5862 28.8115 63.2088 28.8115C65.0223 28.8115 66.4965 28.3555 67.6313 27.4434C68.7767 26.5208 69.5721 25.264 70.0175 23.6732L73.39 24.58C72.7113 26.8389 71.5023 28.6365 69.763 29.9728C68.0343 31.3091 65.8496 31.9772 63.2088 31.9772ZM77.207 31.5V8.11506H80.5318V31.5H77.207ZM92.9289 31.9772C91.2214 31.9772 89.7208 31.6061 88.4269 30.8637C87.1437 30.1107 86.1415 29.0661 85.4203 27.7298C84.7097 26.3829 84.3544 24.8239 84.3544 23.0528C84.3544 21.1756 84.7044 19.5477 85.4044 18.169C86.1149 16.7903 87.1012 15.7244 88.3633 14.9715C89.6253 14.2185 91.0942 13.842 92.7698 13.842C94.5197 13.842 96.0098 14.2503 97.24 15.0669C98.4703 15.8729 99.3876 17.0236 99.9921 18.519C100.607 20.0143 100.851 21.7907 100.724 23.8482H97.3991V22.6392C97.3779 20.6454 96.9961 19.1712 96.2537 18.2167C95.5219 17.2622 94.4031 16.785 92.8971 16.785C91.2321 16.785 89.9806 17.31 89.1428 18.3599C88.305 19.4098 87.886 20.9264 87.886 22.9096C87.886 24.7974 88.305 26.2609 89.1428 27.3003C89.9806 28.329 91.1896 28.8433 92.7698 28.8433C93.8092 28.8433 94.7053 28.61 95.4583 28.1434C96.2219 27.6661 96.8158 26.9874 97.24 26.1071L100.501 27.1412C99.833 28.679 98.8202 29.8721 97.4627 30.7205C96.1052 31.5583 94.594 31.9772 92.9289 31.9772ZM86.8043 23.8482V21.2552H99.0695V23.8482H86.8043ZM108.834 31.9772C107.562 31.9772 106.496 31.7439 105.637 31.2773C104.778 30.8 104.126 30.1743 103.68 29.4001C103.245 28.6153 103.028 27.7563 103.028 26.823C103.028 25.9534 103.182 25.1898 103.489 24.5322C103.797 23.8747 104.253 23.3179 104.857 22.8619C105.462 22.3953 106.204 22.0188 107.084 21.7324C107.848 21.5097 108.712 21.3135 109.677 21.1438C110.643 20.9741 111.655 20.815 112.716 20.6666C113.787 20.5181 114.848 20.3696 115.898 20.2211L114.689 20.8893C114.71 19.5424 114.423 18.5455 113.829 17.8986C113.246 17.241 112.239 16.9123 110.807 16.9123C109.905 16.9123 109.078 17.1244 108.325 17.5486C107.572 17.9622 107.047 18.6515 106.75 19.6166L103.648 18.6621C104.072 17.188 104.878 16.0161 106.066 15.1464C107.265 14.2768 108.856 13.842 110.839 13.842C112.377 13.842 113.713 14.1071 114.848 14.6374C115.993 15.1571 116.831 15.9843 117.361 17.1191C117.637 17.6811 117.806 18.275 117.87 18.9008C117.934 19.5265 117.966 20.1999 117.966 20.9211V31.5H115.023V27.5707L115.595 28.0798C114.885 29.3948 113.978 30.3758 112.875 31.0228C111.783 31.6591 110.436 31.9772 108.834 31.9772ZM109.423 29.257C110.367 29.257 111.178 29.0926 111.857 28.7638C112.536 28.4244 113.082 27.9949 113.495 27.4752C113.909 26.9556 114.179 26.4147 114.307 25.8526C114.487 25.3436 114.588 24.7709 114.609 24.1345C114.641 23.4982 114.657 22.9892 114.657 22.6074L115.738 23.0051C114.689 23.1641 113.734 23.3073 112.875 23.4346C112.016 23.5618 111.236 23.6891 110.536 23.8164C109.847 23.933 109.232 24.0762 108.691 24.2459C108.235 24.405 107.827 24.5959 107.466 24.8186C107.116 25.0413 106.835 25.3117 106.623 25.6299C106.422 25.9481 106.321 26.3352 106.321 26.7912C106.321 27.2366 106.432 27.6502 106.655 28.032C106.878 28.4032 107.217 28.7002 107.673 28.9229C108.129 29.1456 108.712 29.257 109.423 29.257ZM122.096 31.5V14.3192H125.055V18.4872L124.642 17.9463C124.854 17.3948 125.13 16.891 125.469 16.435C125.808 15.9684 126.201 15.5866 126.646 15.2896C127.081 14.9715 127.564 14.7275 128.094 14.5578C128.635 14.3776 129.186 14.2715 129.748 14.2397C130.31 14.1973 130.851 14.2238 131.371 14.3192V17.4372C130.809 17.2887 130.183 17.2463 129.494 17.31C128.815 17.3736 128.189 17.591 127.617 17.9622C127.076 18.3122 126.646 18.7364 126.328 19.2348C126.02 19.7333 125.798 20.2901 125.66 20.9052C125.522 21.5097 125.453 22.1513 125.453 22.8301V31.5H122.096ZM143.961 31.9772C141.67 31.9772 139.719 31.4788 138.107 30.4819C136.495 29.4744 135.259 28.0745 134.4 26.2821C133.552 24.4898 133.128 22.4112 133.128 20.0462C133.128 17.6811 133.552 15.6025 134.4 13.8102C135.259 12.0179 136.495 10.6232 138.107 9.62633C139.719 8.61882 141.67 8.11506 143.961 8.11506C146.602 8.11506 148.787 8.7832 150.515 10.1195C152.255 11.4558 153.464 13.2534 154.142 15.5123L150.77 16.4191C150.324 14.8177 149.529 13.5609 148.384 12.6489C147.249 11.7368 145.775 11.2808 143.961 11.2808C142.339 11.2808 140.986 11.6467 139.905 12.3784C138.823 13.1102 138.006 14.1336 137.455 15.4487C136.914 16.7638 136.643 18.2963 136.643 20.0462C136.633 21.796 136.898 23.3285 137.439 24.6436C137.99 25.9587 138.807 26.9821 139.889 27.7139C140.981 28.4456 142.339 28.8115 143.961 28.8115C145.775 28.8115 147.249 28.3555 148.384 27.4434C149.529 26.5208 150.324 25.264 150.77 23.6732L154.142 24.58C153.464 26.8389 152.255 28.6365 150.515 29.9728C148.787 31.3091 146.602 31.9772 143.961 31.9772ZM162.493 31.9772C161.221 31.9772 160.155 31.7439 159.296 31.2773C158.437 30.8 157.784 30.1743 157.339 29.4001C156.904 28.6153 156.687 27.7563 156.687 26.823C156.687 25.9534 156.84 25.1898 157.148 24.5322C157.456 23.8747 157.912 23.3179 158.516 22.8619C159.121 22.3953 159.863 22.0188 160.743 21.7324C161.507 21.5097 162.371 21.3135 163.336 21.1438C164.301 20.9741 165.314 20.815 166.375 20.6666C167.446 20.5181 168.506 20.3696 169.556 20.2211L168.347 20.8893C168.369 19.5424 168.082 18.5455 167.488 17.8986C166.905 17.241 165.897 16.9123 164.466 16.9123C163.564 16.9123 162.737 17.1244 161.984 17.5486C161.231 17.9622 160.706 18.6515 160.409 19.6166L157.307 18.6621C157.731 17.188 158.537 16.0161 159.725 15.1464C160.924 14.2768 162.514 13.842 164.498 13.842C166.035 13.842 167.372 14.1071 168.506 14.6374C169.652 15.1571 170.49 15.9843 171.02 17.1191C171.296 17.6811 171.465 18.275 171.529 18.9008C171.593 19.5265 171.624 20.1999 171.624 20.9211V31.5H168.681V27.5707L169.254 28.0798C168.544 29.3948 167.637 30.3758 166.534 31.0228C165.441 31.6591 164.095 31.9772 162.493 31.9772ZM163.082 29.257C164.026 29.257 164.837 29.0926 165.516 28.7638C166.194 28.4244 166.741 27.9949 167.154 27.4752C167.568 26.9556 167.838 26.4147 167.966 25.8526C168.146 25.3436 168.247 24.7709 168.268 24.1345C168.3 23.4982 168.316 22.9892 168.316 22.6074L169.397 23.0051C168.347 23.1641 167.393 23.3073 166.534 23.4346C165.675 23.5618 164.895 23.6891 164.195 23.8164C163.506 23.933 162.891 24.0762 162.35 24.2459C161.894 24.405 161.486 24.5959 161.125 24.8186C160.775 25.0413 160.494 25.3117 160.282 25.6299C160.08 25.9481 159.98 26.3352 159.98 26.7912C159.98 27.2366 160.091 27.6502 160.314 28.032C160.536 28.4032 160.876 28.7002 161.332 28.9229C161.788 29.1456 162.371 29.257 163.082 29.257ZM182.325 31.9613C180.236 31.9613 178.534 31.5 177.219 30.5773C175.904 29.6547 175.098 28.3555 174.801 26.6798L178.205 26.1549C178.417 27.0457 178.905 27.751 179.669 28.2707C180.443 28.7797 181.403 29.0342 182.548 29.0342C183.587 29.0342 184.399 28.8221 184.982 28.3979C185.576 27.9737 185.873 27.3904 185.873 26.648C185.873 26.2132 185.767 25.8632 185.555 25.5981C185.353 25.3223 184.924 25.0625 184.266 24.8186C183.609 24.5747 182.606 24.2724 181.26 23.9118C179.785 23.53 178.613 23.1217 177.744 22.6869C176.885 22.2415 176.27 21.7271 175.898 21.1438C175.538 20.5499 175.358 19.834 175.358 18.9962C175.358 17.9569 175.633 17.0501 176.185 16.2759C176.736 15.5017 177.511 14.9025 178.507 14.4783C179.515 14.0541 180.692 13.842 182.039 13.842C183.354 13.842 184.526 14.0488 185.555 14.4624C186.583 14.876 187.416 15.4646 188.052 16.2282C188.689 16.9812 189.07 17.8667 189.198 18.8849L185.793 19.5053C185.677 18.6781 185.29 18.0258 184.632 17.5486C183.975 17.0713 183.121 16.8115 182.071 16.7691C181.063 16.7267 180.247 16.8963 179.621 17.2781C178.995 17.6493 178.682 18.1637 178.682 18.8212C178.682 19.203 178.799 19.5265 179.032 19.7916C179.276 20.0568 179.743 20.3113 180.432 20.5552C181.122 20.7991 182.14 21.0908 183.487 21.4302C184.929 21.8013 186.074 22.215 186.923 22.671C187.771 23.1164 188.376 23.652 188.736 24.2777C189.108 24.8928 189.293 25.6405 189.293 26.5208C189.293 28.2176 188.673 29.5486 187.432 30.5137C186.202 31.4788 184.499 31.9613 182.325 31.9613ZM204.871 31.5V23.0528C204.871 22.3846 204.813 21.7006 204.696 21.0006C204.59 20.2901 204.378 19.6325 204.06 19.028C203.753 18.4235 203.312 17.9357 202.74 17.5645C202.178 17.1933 201.441 17.0077 200.528 17.0077C199.935 17.0077 199.372 17.1085 198.842 17.31C198.312 17.5009 197.845 17.8137 197.442 18.2485C197.05 18.6834 196.737 19.256 196.504 19.9666C196.281 20.6772 196.17 21.5415 196.17 22.5596L194.102 21.7801C194.102 20.2211 194.393 18.8477 194.977 17.6599C195.56 16.4615 196.398 15.5282 197.49 14.8601C198.582 14.192 199.903 13.8579 201.451 13.8579C202.639 13.8579 203.636 14.0488 204.442 14.4306C205.248 14.8124 205.9 15.3161 206.399 15.9419C206.908 16.557 207.295 17.2304 207.56 17.9622C207.825 18.694 208.005 19.4098 208.101 20.1098C208.196 20.8097 208.244 21.4249 208.244 21.9551V31.5H204.871ZM192.797 31.5V8.5923H195.772V20.9529H196.17V31.5H192.797Z" fill="#FEFFFF"/>
</svg>
